<svg width="24" height="24" viewBox="0 0 24 24" fill="none" xmlns="http://www.w3.org/2000/svg">
<rect width="24" height="24" rx="4" fill="#001B94"/>
<path d="M16.3734 10.2041C16.7328 10.2041 17.0245 9.91177 17.0245 9.55113C17.0245 9.19049 16.7328 8.89796 16.3734 8.89796C16.0138 8.89796 15.7221 9.19049 15.7221 9.55113C15.7221 9.91177 16.0138 10.2041 16.3734 10.2041Z" fill="white"/>
<path d="M14.4195 8.2449C14.7791 8.2449 15.0709 7.95237 15.0709 7.59173C15.0709 7.23131 14.7791 6.93878 14.4195 6.93878C14.0599 6.93878 13.7684 7.23131 13.7684 7.59173C13.7684 7.95237 14.0599 8.2449 14.4195 8.2449Z" fill="white"/>
<path d="M16.3734 8.2449C16.7328 8.2449 17.0245 7.95237 17.0245 7.59173C17.0245 7.23131 16.7328 6.93878 16.3734 6.93878C16.0138 6.93878 15.7221 7.23131 15.7221 7.59173C15.7221 7.95237 16.0138 8.2449 16.3734 8.2449Z" fill="white"/>
<path d="M12.4661 8.2449C12.8255 8.2449 13.1172 7.95237 13.1172 7.59173C13.1172 7.23131 12.8255 6.93878 12.4661 6.93878C12.1064 6.93878 11.8147 7.23131 11.8147 7.59173C11.8147 7.95237 12.1064 8.2449 12.4661 8.2449Z" fill="white"/>
<path d="M18.1362 6.42113C18.3906 6.16585 18.3906 5.75246 18.1362 5.49741C17.8819 5.24236 17.4697 5.24236 17.2151 5.49741C16.961 5.75246 16.961 6.16585 17.2151 6.42113C17.4697 6.67595 17.8819 6.67595 18.1362 6.42113Z" fill="white"/>
<path d="M19.7643 5.115C20.0186 4.85973 20.0186 4.44634 19.7643 4.19129C19.51 3.93624 19.0977 3.93624 18.8432 4.19129C18.5891 4.44634 18.5891 4.85973 18.8432 5.115C19.0977 5.36983 19.51 5.36983 19.7643 5.115Z" fill="white"/>
<path d="M10.1865 8.2449C10.5462 8.2449 10.8379 7.95237 10.8379 7.59173C10.8379 7.23131 10.5462 6.93878 10.1865 6.93878C9.82691 6.93878 9.53543 7.23131 9.53543 7.59173C9.53543 7.95237 9.82691 8.2449 10.1865 8.2449Z" fill="white"/>
<path d="M8.23309 8.2449C8.59271 8.2449 8.8842 7.95237 8.8842 7.59173C8.8842 7.23131 8.59271 6.93878 8.23309 6.93878C7.87346 6.93878 7.58175 7.23131 7.58175 7.59173C7.58175 7.95237 7.87346 8.2449 8.23309 8.2449Z" fill="white"/>
<path d="M17.0245 11.5101C17.0245 11.1497 16.7328 10.8571 16.3734 10.8571C16.0138 10.8571 15.7221 11.1497 15.7221 11.5101C15.7221 11.8707 16.0138 12.1633 16.3734 12.1633C16.7328 12.1633 17.0245 11.8707 17.0245 11.5101Z" fill="white"/>
<path d="M8.55848 18.0408C8.91811 18.0408 9.20982 17.7483 9.20982 17.3876C9.20982 17.027 8.91811 16.7347 8.55848 16.7347C8.19907 16.7347 7.90736 17.027 7.90736 17.3876C7.90736 17.7483 8.19907 18.0408 8.55848 18.0408Z" fill="white"/>
<path d="M6.60502 16.0816C6.96464 16.0816 7.25613 15.7891 7.25613 15.4287C7.25613 15.068 6.96464 14.7755 6.60502 14.7755C6.24539 14.7755 5.95368 15.068 5.95368 15.4287C5.95368 15.7891 6.24539 16.0816 6.60502 16.0816Z" fill="white"/>
<path d="M8.55848 16.0816C8.91811 16.0816 9.20982 15.7891 9.20982 15.4287C9.20982 15.068 8.91811 14.7755 8.55848 14.7755C8.19907 14.7755 7.90736 15.068 7.90736 15.4287C7.90736 15.7891 8.19907 16.0816 8.55848 16.0816Z" fill="white"/>
<path d="M4.65112 16.0816C5.01075 16.0816 5.30245 15.7891 5.30245 15.4287C5.30245 15.068 5.01075 14.7755 4.65112 14.7755C4.29171 14.7755 4 15.068 4 15.4287C4 15.7891 4.29171 16.0816 4.65112 16.0816Z" fill="white"/>
<path d="M9.20982 19.3471C9.20982 18.9864 8.91811 18.6939 8.55848 18.6939C8.19907 18.6939 7.90736 18.9864 7.90736 19.3471C7.90736 19.7075 8.19907 20 8.55848 20C8.91811 20 9.20982 19.7075 9.20982 19.3471Z" fill="white"/>
<path d="M17.0245 13.4695C17.0245 13.1089 16.7328 12.8163 16.3734 12.8163C16.0138 12.8163 15.7221 13.1089 15.7221 13.4695C15.7221 13.8301 16.0138 14.1224 16.3734 14.1224C16.7328 14.1224 17.0245 13.8301 17.0245 13.4695Z" fill="white"/>
<path d="M17.0245 15.755C17.0245 15.3944 16.7328 15.102 16.3734 15.102C16.0138 15.102 15.7221 15.3944 15.7221 15.755C15.7221 16.1156 16.0138 16.4082 16.3734 16.4082C16.7328 16.4082 17.0245 16.1156 17.0245 15.755Z" fill="white"/>
<path d="M11.489 13.1429C11.8486 13.1429 12.1403 12.8505 12.1403 12.4899C12.1403 12.1293 11.8486 11.8367 11.489 11.8367C11.1294 11.8367 10.8379 12.1293 10.8379 12.4899C10.8379 12.8505 11.1294 13.1429 11.489 13.1429Z" fill="white"/>
<path d="M13.2521 11.3189C13.5064 11.0639 13.5064 10.6506 13.2521 10.3953C12.9975 10.1403 12.5854 10.1403 12.3311 10.3953C12.0768 10.6506 12.0768 11.0639 12.3311 11.3189C12.5854 11.574 12.9975 11.574 13.2521 11.3189Z" fill="white"/>
<path d="M14.8801 10.0128C15.1344 9.7578 15.1344 9.34446 14.8801 9.08922C14.6256 8.83421 14.2134 8.83421 13.9591 9.08922C13.7048 9.34446 13.7048 9.7578 13.9591 10.0128C14.2134 10.2678 14.6256 10.2678 14.8801 10.0128Z" fill="white"/>
<path d="M10.6471 14.2579C10.9015 14.0028 10.9015 13.5894 10.6471 13.3341C10.3926 13.0791 9.98034 13.0791 9.72601 13.3341C9.4719 13.5894 9.4719 14.0028 9.72601 14.2579C9.98034 14.5127 10.3926 14.5127 10.6471 14.2579Z" fill="white"/>
</svg>
