<svg width="24" height="24" viewBox="0 0 24 24" fill="none" xmlns="http://www.w3.org/2000/svg">
<rect width="24" height="24" rx="4" fill="#D90D2B"/>
<path d="M3.53119 7.3299C3.53119 7.3299 4.66893 6.15248 6.43964 6.15248C9.39644 6.15248 11.8258 8.02302 15.1608 9.14202C16.0187 8.39525 16.8259 7.59779 17.6139 6.78114C14.9724 6.20001 11.727 4 9.52118 4C7.33367 4 5.87931 4.72587 3.53119 7.3299Z" fill="#FEDAA0"/>
<path d="M16.0541 20.7882C16.0541 20.7882 17.2802 19.8104 17.4128 17.972C17.5949 15.4456 16.5022 13.4001 15.1608 9.14202C15.9673 8.34007 16.7426 7.50836 17.6138 6.78113C18.0331 9.66116 19.947 12.8244 19.7863 15.0532C19.6438 17.0312 18.938 18.5416 16.0541 20.7882Z" fill="url(#paint0_linear_2_49)"/>
<defs>
<linearGradient id="paint0_linear_2_49" x1="17.6138" y1="6.57101" x2="17.6138" y2="20.7882" gradientUnits="userSpaceOnUse">
<stop stop-color="#9E7847"/>
<stop offset="1" stop-color="#DAB687"/>
</linearGradient>
</defs>
</svg>
