<svg width="32" height="32" viewBox="0 0 24 24" fill="none" xmlns="http://www.w3.org/2000/svg">
<rect width="24" height="24" rx="4" fill="#FFF2EC"/>
<path d="M13.8347 14.1876C14.6034 15.358 15.5948 15.6892 16.5372 15.6892C17.0332 15.6892 17.5539 15.6449 18 15.5124V17.3232C17.4794 17.4336 16.9093 17.5 16.339 17.5C14.3305 17.5 13.2894 16.8376 12.0991 15.2476L12 15.1151L13.0167 13.0613L13.0505 13L13.091 13.0613L13.8347 14.1876Z" fill="#FF6423"/>
<path d="M12.0991 8.52593L12 8.65853L13.0122 10.6821C13.0153 10.6882 13.0186 10.6943 13.0219 10.7002L13.0507 10.75L13.091 10.6914L13.8347 9.60866C14.628 8.45973 15.5948 8.06193 16.5372 8.06193C17.0332 8.06193 17.5539 8.1062 18 8.2388V6.40474C17.4794 6.29406 16.9093 6.25 16.339 6.25C14.3305 6.25 13.2892 6.93514 12.0991 8.52593Z" fill="#FF6423"/>
<path d="M11.4 8.92743C10.4325 6.78986 9.21755 6.25 7.50735 6.25C6.99001 6.25 6.42739 6.33994 6 6.45242V8.25254C6.31491 8.13985 6.71997 8.09498 7.12482 8.09498C8.11484 8.09498 8.83481 8.47772 9.48737 9.78262L10.5313 11.8863L9.48737 13.9901C8.83481 15.2952 8.11484 15.655 7.12482 15.655C6.71997 15.655 6.31491 15.5876 6 15.4749V17.2974C6.31491 17.3873 6.76505 17.5 7.50735 17.5C9.21733 17.5 10.4548 16.9374 11.4 14.8449L12.75 11.8751L11.4 8.92743Z" fill="#FF6423"/>
</svg>
