<svg width="24" height="24" viewBox="0 0 24 24" fill="none" xmlns="http://www.w3.org/2000/svg">
<rect width="24" height="24" rx="4" fill="#FF6300"/>
<path d="M3.06054 18.9544L8.70674 9.37598C8.79949 9.22272 8.85999 9.1582 8.95275 9.1582C9.0455 9.1582 9.11004 9.23886 9.18666 9.35985C9.88569 10.5379 10.2562 11.8818 10.2594 13.2517C10.2594 16.8451 7.43634 19.3254 3.37108 19.3254C3.29446 19.3254 3.00005 19.3254 3.00005 19.1399C2.99886 19.073 3.02016 19.0077 3.06054 18.9544Z" fill="#5C0FD9"/>
<path d="M15.9983 10.0898L20.9428 18.922C21.0678 19.1399 20.9912 19.3254 20.6807 19.3254C17.051 19.3254 15.3652 17.9622 14.002 15.5263L10.1908 8.71053C10.0074 8.43861 9.90013 8.12248 9.88031 7.79504C9.91938 7.39109 10.0579 7.00312 10.2836 6.6658L10.7635 5.81484C11.4451 4.55655 12.1872 4 13.9375 4H15.1797C15.3652 4 15.3813 4.14115 15.2886 4.24601C14.8579 4.76245 14.6364 5.42144 14.6675 6.09311C14.6675 7.02071 15.0103 8.30724 15.9983 10.0898Z" fill="#5C0FD9"/>
</svg>
